# xmcd
#
# Track frame offsets:
#	150
#	10650
#	26264
#	36321
#	51735
#	63328
#	76131
#	96733
#	115496
#	125304
#	135241
#	150022
#	167981
#	187381
#	202724
#	214775
#
# Disc length: 3000 seconds
# Revision: 0
# Processed by: cddbd v1.5.2PL0 Copyright (c) Steve Scherf et al.
# Submitted via: dBpowerAMP V12.0
#
DISCID=d60bb610
DTITLE=Melvin Goins and Windy Mountain - Pickin' On
DYEAR=2005
DGENRE=Country
TTITLE0=Head Over Heels
TTITLE1=Introductions
TTITLE2=Earl's Breakdown
TTITLE3=You're Not Easy to Forget
TTITLE4=Across The Sea Blues
TTITLE5=Under the Double Eagle
TTITLE6=Be No Tear Drops Tonight
TTITLE7=Listen to the Mockingbird
TTITLE8=Pistol Packing Mama
TTITLE9=Stay a Little Longer
TTITLE10=Old Old House
TTITLE11=Freight Train Boogie
TTITLE12=In the Pines
TTITLE13=Bluegrass Stomp
TTITLE14=You All Come
TTITLE15=Lee Highway Blues
EXTD=
EXTT0=
EXTT1=
EXTT2=
EXTT3=
EXTT4=
EXTT5=
EXTT6=
EXTT7=
EXTT8=
EXTT9=
EXTT10=
EXTT11=
EXTT12=
EXTT13=
EXTT14=
EXTT15=
PLAYORDER=
